<svg width="40" height="40" viewBox="0 0 40 40" fill="none" xmlns="http://www.w3.org/2000/svg">
<path d="M8.45844 29.3281C7.84719 29.9394 7.84719 30.9303 8.45844 31.5415C9.06969 32.1528 10.0607 32.1528 10.672 31.5415L8.45844 29.3281ZM21.1067 21.1067C21.718 20.4955 21.718 19.5046 21.1067 18.8933C20.4955 18.282 19.5046 18.282 18.8933 18.8933L21.1067 21.1067ZM18.8933 18.8933C18.282 19.5046 18.282 20.4955 18.8933 21.1067C19.5046 21.718 20.4955 21.718 21.1067 21.1067L18.8933 18.8933ZM31.5415 10.672C32.1528 10.0607 32.1528 9.06969 31.5415 8.45844C30.9303 7.84719 29.9394 7.84719 29.3281 8.45844L31.5415 10.672ZM21.1067 18.8933C20.4955 18.282 19.5046 18.282 18.8933 18.8933C18.282 19.5046 18.282 20.4955 18.8933 21.1067L21.1067 18.8933ZM29.3281 31.5415C29.9394 32.1528 30.9303 32.1528 31.5415 31.5415C32.1528 30.9303 32.1528 29.9394 31.5415 29.3281L29.3281 31.5415ZM18.8933 21.1067C19.5046 21.718 20.4955 21.718 21.1067 21.1067C21.718 20.4955 21.718 19.5046 21.1067 18.8933L18.8933 21.1067ZM10.672 8.45844C10.0607 7.84719 9.06969 7.84719 8.45844 8.45844C7.84719 9.06969 7.84719 10.0607 8.45844 10.672L10.672 8.45844ZM10.672 31.5415L21.1067 21.1067L18.8933 18.8933L8.45844 29.3281L10.672 31.5415ZM21.1067 21.1067L31.5415 10.672L29.3281 8.45844L18.8933 18.8933L21.1067 21.1067ZM18.8933 21.1067L29.3281 31.5415L31.5415 29.3281L21.1067 18.8933L18.8933 21.1067ZM21.1067 18.8933L10.672 8.45844L8.45844 10.672L18.8933 21.1067L21.1067 18.8933Z" fill="#7927E0"/>
</svg>
