<svg width="20" height="20" viewBox="0 0 20 20" fill="none" xmlns="http://www.w3.org/2000/svg">
<path d="M4.22922 14.6641C3.92359 14.9697 3.92359 15.4651 4.22922 15.7708C4.53484 16.0764 5.03037 16.0764 5.336 15.7708L4.22922 14.6641ZM10.5534 10.5534C10.859 10.2477 10.859 9.75229 10.5534 9.44665C10.2477 9.14102 9.75229 9.14102 9.44665 9.44665L10.5534 10.5534ZM9.44665 9.44665C9.14102 9.75229 9.14102 10.2477 9.44665 10.5534C9.75229 10.859 10.2477 10.859 10.5534 10.5534L9.44665 9.44665ZM15.7708 5.336C16.0764 5.03037 16.0764 4.53484 15.7708 4.22922C15.4651 3.92359 14.9697 3.92359 14.6641 4.22922L15.7708 5.336ZM10.5534 9.44665C10.2477 9.14102 9.75229 9.14102 9.44665 9.44665C9.14102 9.75229 9.14102 10.2477 9.44665 10.5534L10.5534 9.44665ZM14.6641 15.7708C14.9697 16.0764 15.4651 16.0764 15.7708 15.7708C16.0764 15.4651 16.0764 14.9697 15.7708 14.6641L14.6641 15.7708ZM9.44665 10.5534C9.75229 10.859 10.2477 10.859 10.5534 10.5534C10.859 10.2477 10.859 9.75229 10.5534 9.44665L9.44665 10.5534ZM5.336 4.22922C5.03037 3.92359 4.53484 3.92359 4.22922 4.22922C3.92359 4.53484 3.92359 5.03037 4.22922 5.336L5.336 4.22922ZM5.336 15.7708L10.5534 10.5534L9.44665 9.44665L4.22922 14.6641L5.336 15.7708ZM10.5534 10.5534L15.7708 5.336L14.6641 4.22922L9.44665 9.44665L10.5534 10.5534ZM9.44665 10.5534L14.6641 15.7708L15.7708 14.6641L10.5534 9.44665L9.44665 10.5534ZM10.5534 9.44665L5.336 4.22922L4.22922 5.336L9.44665 10.5534L10.5534 9.44665Z" fill="#7927E0"/>
</svg>
